<?xml version="1.0" encoding="UTF-8" standalone="no"?>
<!-- Created with Inkscape (http://www.inkscape.org/) -->

<svg
   width="210mm"
   height="297mm"
   viewBox="0 0 210 297"
   version="1.1"
   id="svg1"
   xml:space="preserve"
   xmlns="http://www.w3.org/2000/svg"
   xmlns:svg="http://www.w3.org/2000/svg"><defs
     id="defs1" /><g
     id="layer1"><g
       id="g1"
       transform="matrix(0.00122967,-0.19396138,0.19396138,0.00122967,13.259939,272.96399)"><rect
         x="-136.8"
         width="1641.6"
         fill="#ffffff"
         y="-93.599998"
         height="1123.2"
         fill-opacity="1"
         id="rect1" /><rect
         x="-136.8"
         width="1641.6"
         fill="#fffaeb"
         y="-93.599998"
         height="1123.2"
         fill-opacity="1"
         id="rect2" /><path
         fill="#fffaeb"
         d="M 1178.7891,1186.0625 H 192.9375 V -208.25 h 985.8516 z m 0,0"
         fill-opacity="1"
         fill-rule="nonzero"
         id="path2" /><path
         fill="#000000"
         d="m 392.23437,68.34375 c 0.39063,-0.144531 5.73438,-0.320312 11.86719,-0.390625 l 11.15625,-0.128906 0.20313,-32.175781 c 0.17578,-27.992188 0.3125,-32.175782 1.05078,-32.175782 0.73828,0.00391 0.85937,4.1875 0.9414,32.179688 l 0.0937,32.175781 11.39063,0.01953 11.39453,0.01953 0.55078,-1.714844 c 1.6875,-5.238282 5.72266,-7.683594 12.6875,-7.691406 l 4.55078,-0.0039 -2.03906,-2.148437 c -1.12109,-1.179688 -2.32812,-3.023438 -2.68359,-4.09375 -0.8125,-2.457032 -0.83203,-35.539063 -0.0195,-38.347656 0.625,-2.160157 3.47265,-5.40625 5.82031,-6.632813 2.04297,-1.066406 96.44922,-1.167969 99.16797,-0.109375 1.89062,0.738281 4.60547,3.113281 5.58593,4.894531 0.34766,0.628907 0.77344,3.074219 0.94532,5.4375 l 0.30859,4.289063 129.27734,0.246094 c 71.10157,0.136718 140.51172,0.171874 154.2461,0.07422 23.30469,-0.164062 24.98828,-0.242187 25.23828,-1.1875 0.25,-0.949218 2.71484,-1.03125 41.10156,-1.355468 22.45703,-0.1875 41.28516,-0.164063 41.84375,0.05469 0.92969,0.363281 0.9961,1.339844 0.83594,11.914063 l -0.17188,11.515624 -55.77343,0.203126 -0.0117,6.695312 c -0.0117,6.28125 -0.0703,6.632812 -0.97656,5.726562 -0.76563,-0.769531 -0.96875,-2.105468 -0.98829,-6.558593 l -0.0273,-5.59375 -14.58594,-0.34375 -0.0273,16.460937 -0.0273,16.464844 7.05468,3.300781 c 3.87891,1.816407 7.22266,3.300781 7.42969,3.300781 0.20703,0 0.38672,-4.75 0.39453,-10.554687 0.0117,-7.222656 0.2461,-11.050781 0.73438,-12.125 0.60937,-1.332031 0.75781,0.371094 0.98437,11.203125 l 0.26172,12.777344 5.32813,3.257812 c 2.92968,1.792969 6.65234,4.402344 8.26953,5.800782 l 2.94531,2.542968 25.17969,0.332032 c 21.8789,0.285156 25.18359,0.441406 25.18359,1.183593 0,0.75 -3.14062,0.875 -24.23047,0.96875 -22.76172,0.101563 -24.19922,0.167969 -23.80469,1.101563 2.17188,5.144537 2.55079,10.105467 1.08594,14.152347 -0.45703,1.25781 -0.83203,2.48047 -0.83984,2.71875 -0.004,0.23437 10.66015,0.44531 23.69531,0.46875 22.01172,0.0352 25.47266,0.25 24.22656,1.49219 -0.125,0.125 -11.33593,0.25781 -24.90625,0.29296 l -24.67968,0.0625 -2.76563,2.62891 c -2.88281,2.74219 -9.55859,7.35156 -13.03125,9.00391 l -2.01953,0.95703 -0.043,32.35547 -0.0391,32.35546 4.69922,2.83985 c 5.32812,3.21484 9.9414,6.57812 11.40625,8.3125 0.97265,1.15625 1.47656,1.17578 26.21484,1.21875 19.92578,0.0352 25.17188,0.19531 24.98438,0.75781 -0.1875,0.55469 -5.67969,0.73828 -24.35938,0.82422 -13.26953,0.0586 -24.12109,0.16797 -24.12109,0.24609 0,0.0742 0.51172,1.48828 1.13672,3.14453 1.36328,3.60547 1.47656,8.74219 0.26562,12.15235 -0.47266,1.33594 -0.86328,2.52344 -0.86328,2.63672 0,0.11328 10.74609,0.29297 23.88281,0.39843 20.78125,0.16407 23.87891,0.30079 23.87891,1.04688 0,0.74609 -3.28125,0.89062 -24.94531,1.10156 l -24.94141,0.2461 -1.5625,1.84765 c -1.62891,1.92969 -9.14453,7.125 -13.35156,9.22656 l -2.4336,1.21485 -0.0547,32.21875 -0.0547,32.21484 5.10156,3.0586 c 2.80469,1.67968 6.63281,4.42968 8.51172,6.10546 l 3.41016,3.04688 25.03515,0.19531 c 19.41406,0.14844 25.08985,0.35156 25.27344,0.90625 0.1875,0.5625 -4.89063,0.70703 -24.12109,0.67188 -13.39844,-0.0234 -24.35938,0.15234 -24.35938,0.39062 0,0.23438 0.51172,1.78125 1.13672,3.4375 1.35547,3.57813 1.44922,7.4961 0.27344,11.34375 -0.47266,1.54297 -0.85938,2.96094 -0.86328,3.15235 -0.004,0.1875 10.73828,0.33593 23.875,0.32421 20.87109,-0.0117 23.88281,0.0937 23.8789,0.84375 0,0.74219 -3.28515,0.88672 -24.97265,1.10157 l -24.97657,0.24218 -1.18359,1.4961 c -1.30469,1.66015 -9.86719,7.64844 -13.66797,9.5664 l -2.43359,1.23047 -0.0547,32.53907 -0.0547,32.54296 4.14844,2.28516 c 4.57031,2.51953 11.00781,7.18359 11.74609,8.51172 0.40625,0.73047 3.91797,0.85547 25.02735,0.89453 13.5039,0.0234 25.0039,0.17188 25.55468,0.32813 0.55079,0.16015 1,0.65625 1,1.10937 -0.004,0.69922 -3.59375,0.8125 -24.3125,0.77734 -13.37109,-0.0234 -24.3125,0.17579 -24.3125,0.44141 0,0.26563 0.42188,1.33594 0.9375,2.37109 1.39844,2.82032 1.67188,9.05079 0.53907,12.35157 -0.51563,1.5039 -0.9336,2.95312 -0.9375,3.22265 0,0.27344 10.70703,0.48047 23.78906,0.46485 13.08203,-0.0156 23.91797,0.10547 24.08203,0.26562 1.31641,1.32422 -1.91406,1.51172 -25.07031,1.47266 l -24.60938,-0.043 -3.30078,2.95703 c -1.8164,1.625 -5.72656,4.40625 -8.6875,6.17969 l -5.39062,3.22265 -0.0937,56.53907 28.02734,0.33593 28.02734,0.33204 0.0625,9.4414 c 0.0312,5.1875 -0.0703,10.40235 -0.22656,11.58594 l -0.28515,2.14844 -41.83985,-0.21875 -41.83594,-0.21875 -0.35937,-2.57813 -154.26563,-0.11719 -154.26171,-0.11718 -0.30079,4.57422 c -0.42968,6.59765 -2.52734,9.76953 -7.38281,11.16796 -1.39062,0.40235 -17.66015,0.51563 -49.64062,0.34766 l -47.57032,-0.25391 -2.47656,-1.72656 c -1.44922,-1.01172 -3.01172,-2.78906 -3.76172,-4.27734 -1.24218,-2.46875 -1.28125,-3.05078 -1.2539,-19.51953 l 0.0312,-16.97266 1.59765,-3.04687 c 1.29297,-2.46875 2.17969,-3.34766 4.64844,-4.63282 l 3.05078,-1.58984 47.26953,0.0937 c 44.92969,0.0898 47.38672,0.14453 49.6211,1.16797 1.29687,0.58984 3.09375,2.04687 4,3.23828 1.45312,1.91016 1.66797,2.72266 1.83984,6.92969 l 0.19141,4.76172 154.35547,0.26562 c 102.28515,0.17188 154.47265,0.0703 154.70703,-0.30859 0.19531,-0.31641 2.26953,-0.57032 4.60937,-0.56641 l 4.25781,0.0117 0.0391,-24.08594 c 0.0391,-22.71484 -0.0156,-24.0625 -0.96094,-23.67969 -0.55078,0.22266 -2.69141,1.00391 -4.75391,1.73438 -11.26953,3.98828 -18.30078,1.14844 -21.71484,-8.76953 -1.28516,-3.73047 -1.34375,-4.66016 -1.51953,-24.1875 -0.14844,-16.85938 -0.0273,-21.03125 0.72265,-24.57813 1.15625,-5.45703 3.3086,-8.93359 6.90625,-11.14453 2.57422,-1.58203 3.21875,-1.72265 7.71094,-1.67969 4.19922,0.0352 5.50391,0.30469 9.10547,1.8711 2.3125,1.00781 4.30469,1.83203 4.42969,1.83203 0.125,0 0.24609,-10.55469 0.26562,-23.45313 0.0234,-12.89843 -0.17187,-23.45312 -0.42968,-23.45312 -0.26172,0 -2.38672,0.67187 -4.72266,1.5 -3.125,1.10156 -5.46094,1.51562 -8.82813,1.55859 -4.03515,0.0469 -4.89062,-0.13281 -7.27343,-1.53906 -2.99219,-1.76172 -5.01172,-4.71875 -6.58203,-9.63672 -0.86329,-2.71094 -0.98047,-5.80469 -0.94922,-25.39453 0.0351,-21.58984 0.0742,-22.41406 1.29297,-25.59375 1.76953,-4.60547 3.8125,-7.01953 7.42578,-8.78125 2.78906,-1.35547 3.5664,-1.48437 7.3164,-1.19531 2.58985,0.20312 5.59375,0.90234 7.83594,1.83203 2,0.82812 3.89453,1.5625 4.20703,1.62891 0.375,0.082 0.64063,-8 0.76172,-23.1211 l 0.19141,-23.24219 -4.875,1.67188 c -11.79688,4.04297 -19.32813,1.17187 -22.70703,-8.65234 -1.26563,-3.6836 -1.30079,-4.35157 -1.26172,-25.80469 0.0351,-21.38281 0.0742,-22.13281 1.33593,-25.75781 3.37891,-9.71485 10.55469,-12.51172 21.88672,-8.52344 2.67188,0.9375 5.05469,1.71094 5.28907,1.71484 0.23437,0.004 0.44531,-10.4414 0.46875,-23.21875 0.0391,-21.89844 -0.0156,-23.20312 -0.96094,-22.80859 -4.19922,1.75 -10.08203,3.20312 -13.03125,3.21484 -6.20703,0.0312 -9.95703,-2.41015 -12.52344,-8.15625 -2.25,-5.03515 -2.69922,-10.88281 -2.44141,-31.85547 0.21485,-17.535153 0.3086,-18.960935 1.46875,-22.046872 3.60157,-9.574219 10.76172,-12.3125 21.92188,-8.390625 2.67187,0.941406 5.05078,1.714844 5.28906,1.71875 0.23438,0.0039 0.44141,-7.070313 0.45313,-15.722656 l 0.0273,-15.730469 -4.30859,-0.0078 c -3.30078,-0.0039 -4.38282,-0.207031 -4.63282,-0.867187 -0.29296,-0.761719 -18.01171,-0.886719 -154.71484,-1.121094 l -154.38281,-0.261719 -0.008,5.457032 c -0.0117,5.839843 -0.85938,8.503906 -3.45313,10.839843 l -1.26953,1.140625 13.64844,0.308594 c 13.1875,0.300781 13.75,0.359375 16.78906,1.792969 6.02344,2.847656 10.70703,8.949219 11.87109,15.46875 0.2461,1.386719 0.28125,95.062499 0.0742,208.164059 l -0.3789,205.64063 -1.37891,3.40625 c -1.69141,4.18359 -5.88672,8.44921 -10.35938,10.53906 l -3.16015,1.47265 -68.92969,0.0469 c -37.91016,0.0312 -69.72266,-0.0937 -70.69141,-0.26953 -2.6289,-0.47656 -6.1914,-3.8086 -7.01171,-6.5586 l -0.69141,-2.33593 -11.70313,-0.0156 -11.70703,-0.0195 -0.0742,44.23438 c -0.043,24.33203 0.0274,44.34375 0.16016,44.47656 0.13281,0.1289 32.11719,0.13281 71.07422,0.008 38.96094,-0.125 118.97266,-0.3125 177.80469,-0.41406 58.83203,-0.0977 132.19531,-0.28906 163.02734,-0.42578 49.89844,-0.21875 56.53125,-0.14453 60.34766,0.67187 9.1289,1.94922 16.09765,7.11719 19.58984,14.52344 l 1.82813,3.87891 -0.20704,121.26562 -0.20703,121.26953 -1.71875,3.42578 c -2.17187,4.32032 -7.73437,9.92969 -11.78906,11.88672 -6.81641,3.29688 -0.79687,3.12891 -117.80078,3.29297 -59.30469,0.082 -164.84375,0.20313 -234.53125,0.26563 -69.68359,0.0625 -127.02344,0.21484 -127.42188,0.33593 -0.57031,0.17969 -0.69921,8.08985 -0.63671,38.13672 l 0.082,37.91406 11.50781,0.17579 11.50781,0.17187 0.375,-2.77734 c 0.46094,-3.41797 3.38672,-7.09766 6.52735,-8.20313 1.72656,-0.60937 15.07812,-0.73047 69.34765,-0.64062 l 67.21485,0.11718 4.21093,1.38672 c 3.34375,1.10157 4.91407,2.03907 7.61328,4.54688 5.82813,5.41406 7.28907,9.91015 7.24219,22.30469 -0.0312,7.48437 -0.22656,8.6875 -1.40234,8.6875 -0.57422,-0.004 -0.78906,-2.33204 -0.9375,-10.15625 -0.17188,-8.83594 -0.35156,-10.4961 -1.39844,-12.80079 -1.53125,-3.36328 -4.82422,-7.02734 -7.98828,-8.89062 -5.19531,-3.05469 -5.25391,-3.05859 -49.53125,-3.14063 l -41.04297,-0.0781 -0.11719,7.57812 c -0.0625,4.16797 -0.14453,11.875 -0.17968,17.1211 -0.0312,5.25 -0.23829,9.71484 -0.44532,9.92578 -1.36718,1.35937 -1.60156,-1.25391 -1.57422,-17.52344 l 0.0352,-17.15234 -25.02734,0.125 -25.02735,0.12109 -1.86328,1.32422 c -3.19531,2.27344 -3.26953,2.63672 -3.60547,18.40234 -0.26172,12.45704 -0.43359,14.58594 -1.16797,14.58594 -0.72656,-0.004 -0.8789,-1.70703 -0.99218,-11.30078 l -0.13672,-11.29687 -23.42969,-0.0391 -23.42578,-0.0391 -0.17578,11.29688 c -0.14844,9.58984 -0.30469,11.29687 -1.03125,11.29296 -0.73828,0 -0.85547,-1.75 -0.83985,-12.30078 l 0.0195,-12.29687 23.45312,-0.53125 0.52344,-222.3711 0.52344,-222.375 -11.10938,-0.0195 c -6.10937,-0.008 -11.51562,-0.17578 -12.01172,-0.36718 -0.82031,-0.31641 -0.87109,-19.67579 -0.53906,-213.66797 0.28906,-170.13281 0.50781,-213.375 1.07812,-213.582032 z m 24.30079,425.35156 23.45312,0.0391 0.35938,-211.64843 0.35937,-211.644534 -46.90625,-0.07813 -0.35937,211.648444 -0.35938,211.64453 z M 405.92187,82.140625 c 1.87891,-1.3125 4.28907,-1.097656 5.90235,0.523437 1.36328,1.367188 1.40234,1.65625 1.39062,9.753907 -0.0156,8.097661 -0.0586,8.386721 -1.42187,9.746091 -1.6211,1.61719 -4.03125,1.82422 -5.90625,0.50391 -1.22266,-0.85938 -1.26953,-1.22656 -1.25391,-10.265626 0.0156,-9.039063 0.0625,-9.40625 1.28906,-10.261719 z m 1.26563,18.554685 c 0.48437,0.40625 1.46094,0.55469 2.28516,0.34766 l 1.4375,-0.35547 0.0312,-16.546875 -1.4375,-0.363281 c -2.76563,-0.699219 -3.14063,0.332031 -3.15235,8.628906 -0.0117,6.011719 0.16016,7.73047 0.83594,8.28906 z m -1.44922,13.73047 c 1.60938,-1.60156 4.30469,-1.46484 6.07422,0.3125 1.42969,1.4375 1.44141,1.52735 1.24609,9.66797 -0.23047,9.48047 -0.71484,10.625 -4.49218,10.61719 -3.6875,-0.008 -4.00391,-0.86328 -3.98829,-10.77735 0.0117,-7.91406 0.11719,-8.77734 1.16016,-9.82031 z m 1.82813,17.96094 c 0.73046,0.45703 1.27343,0.46094 2.0039,0 0.85547,-0.53516 1.02735,-1.71485 1.17578,-8.11719 0.16016,-7.02344 0.0977,-7.52734 -0.98828,-8.10937 -0.83594,-0.44922 -1.48437,-0.44922 -2.32031,-0.004 -1.08984,0.57813 -1.15234,1.08203 -1.01563,8.10938 0.125,6.40234 0.29297,7.57812 1.14454,8.12109 z m -1.94141,14.41406 c 0.76172,-0.6875 1.83203,-0.92578 3.5625,-0.80078 3.53516,0.26172 3.91406,1.32031 3.90625,10.91406 -0.004,7.10938 -0.11328,7.97266 -1.14844,9.00781 -1.5,1.49219 -5.17969,1.53907 -6.49219,0.0859 -0.78906,-0.8789 -0.9414,-2.44922 -0.92968,-9.63672 0.0117,-7.71093 0.1289,-8.6914 1.10156,-9.57031 z m 2.89062,17.68359 2,0.004 0.0312,-16.01562 -1.65625,-0.19141 c -0.9375,-0.10938 -1.86718,0.13672 -2.14453,0.56641 -0.27343,0.41796 -0.43359,4.10546 -0.36328,8.19531 l 0.13281,7.4375 z m -3.13671,13.5625 c 1.13281,-1.60937 4.17187,-1.69531 6.05078,-0.16796 1.29297,1.05078 1.35547,1.44531 1.49218,9.58593 0.17579,10.48828 -0.10937,11.26953 -4.17578,11.51953 -4.14062,0.25782 -4.29297,-0.13281 -4.27734,-10.75 0.0117,-7.14453 0.19531,-9.16796 0.91016,-10.18359 z m 1.29296,18.08594 c 0.27344,0.42969 1.19532,0.67969 2.13672,0.57422 l 1.65235,-0.1875 0.17187,-8.06641 c 0.14453,-6.73828 0.0312,-8.1914 -0.71484,-8.80859 -0.6836,-0.57031 -1.21875,-0.59375 -2.30469,-0.10156 -1.39844,0.63672 -1.41406,0.71094 -1.41797,8.23437 0,4.17578 0.21094,7.9336 0.47656,8.35157 z m -1.1914,13.625 c 1.69922,-1.53125 4.94531,-1.21875 6.38672,0.6211 1.14453,1.46093 1.20703,2.08984 1.02343,9.99218 -0.22656,9.67969 -0.46875,10.23438 -4.5,10.28516 -3.77734,0.0469 -3.99218,-0.55078 -3.97265,-11 0.0117,-7.94922 0.13281,-9.05859 1.0625,-9.89844 z m 2.92578,18.21875 2.00391,0.004 0.17187,-8.13672 0.17188,-8.13281 -1.45313,-0.36719 c -2.85547,-0.72266 -3.20312,0.28906 -3.04297,8.84766 l 0.14453,7.78515 z m -3.55078,14.71485 c 0.70703,-1.11329 3.98047,-1.85938 5.53515,-1.26563 2.21485,0.84766 2.56641,2.32813 2.55079,10.75781 -0.0117,7.19532 -0.12891,8.11328 -1.20313,9.47266 -1.48828,1.88672 -4.55078,2.05859 -6.25,0.35156 -1.04297,-1.04687 -1.14062,-1.90234 -1.11719,-9.86719 0.008,-4.80078 0.23047,-9.05078 0.48438,-9.44921 z m 2.05859,17.59765 c 0.49219,0.41016 1.46094,0.55469 2.30078,0.34375 l 1.45703,-0.35937 L 410.38281,244 l -1.65625,-0.19531 c -0.9375,-0.10547 -1.86328,0.13672 -2.13672,0.57031 -0.26562,0.41797 -0.49218,4.01172 -0.5039,7.98437 -0.0156,5.70313 0.15625,7.3711 0.82812,7.92969 z m -1.54297,13.53516 c 1.28516,-1.16016 4.63672,-1.22656 6.13672,-0.125 1.01953,0.74609 1.10938,1.5664 1.09375,10.05859 -0.0195,10.41406 -0.19922,10.86719 -4.32812,10.85938 -3.67578,-0.008 -3.98438,-0.85547 -3.96485,-10.97266 0.008,-7.87109 0.13282,-8.98437 1.0625,-9.82031 z m 1.13672,17.83203 c 0.27344,0.43359 1.19922,0.68359 2.13672,0.57812 l 1.65625,-0.1875 0.0117,-8.29296 c 0.0156,-8.22657 0.004,-8.29688 -1.30469,-8.48438 -2.61719,-0.375 -2.97265,0.62109 -2.97656,8.40234 0,3.97266 0.21484,7.56641 0.47656,7.98438 z m -1.09375,13.82422 c 1.59375,-1.58594 4.30078,-1.46485 6.03125,0.27344 1.35938,1.36328 1.40235,1.65234 1.38672,9.75 -0.0117,8.10156 -0.0547,8.39062 -1.41797,9.75 -1.73828,1.73046 -4.44531,1.83984 -6.03515,0.25 -1.04297,-1.04688 -1.14063,-1.91016 -1.125,-10.01172 0.0117,-8.10547 0.11328,-8.96485 1.16015,-10.01172 z m 1.6836,18.30859 c 0.8125,0.4375 1.47656,0.4375 2.28906,0.004 1.0625,-0.56641 1.14453,-1.19531 1.16015,-8.59766 l 0.0117,-7.98828 -1.90625,-0.004 c -1.04687,0 -2.07812,0.16797 -2.28906,0.37891 -0.20703,0.20703 -0.38672,3.80469 -0.39453,7.98828 -0.008,7.01953 0.0742,7.65235 1.12891,8.21875 z m -1.61329,14.04297 c 1.8125,-1.26172 4.78907,-1.11719 6.20704,0.30469 1.10937,1.11719 1.16796,1.71875 0.98437,10.0625 -0.22266,9.97656 -0.44531,10.49219 -4.51172,10.48437 -3.67969,-0.008 -3.98437,-0.85156 -3.96484,-11.03125 0.0117,-8.57812 0.0625,-8.96484 1.28515,-9.8164 z m 0.91407,17.89063 c 0.27343,0.43359 1.19922,0.68359 2.13672,0.57812 l 1.65625,-0.1875 0.34375,-16.27344 -1.45313,-0.36718 c -2.75781,-0.69532 -3.15625,0.33984 -3.16016,8.26562 0,3.97266 0.21485,7.56641 0.47657,7.98438 z m -1.33985,14.15234 c 1.1211,-1.11719 4.80469,-1.16406 6.28516,-0.0781 0.99609,0.73047 1.125,1.66016 1.25391,9.01172 0.17187,10.0625 -0.15235,10.98047 -3.98438,11.22266 -4.28906,0.27344 -4.48828,-0.19141 -4.46875,-10.47266 0.008,-7.22656 0.17578,-8.94531 0.91406,-9.68359 z m 3.07422,17.69531 2.00391,0.004 0.0156,-8.00781 0.0117,-8.00782 -1.65234,-0.1914 c -0.9375,-0.10938 -1.86719,0.13672 -2.14844,0.5664 -0.26953,0.41797 -0.43359,4.10938 -0.35937,8.19922 l 0.1289,7.4375 z m -3.29297,13.79688 c 0.56641,-0.77344 1.38672,-0.96094 3.5625,-0.81641 4.05078,0.26172 4.34766,1.07422 4.13672,11.25 -0.16406,7.83594 -0.23047,8.25 -1.52344,9.28906 -1.7539,1.41407 -4.35546,1.38672 -5.79687,-0.0586 -1.04297,-1.04688 -1.14063,-1.91016 -1.12891,-9.90625 0.008,-6.22266 0.22657,-9.04688 0.75,-9.75781 z m 2.23828,18.17187 c 0.73047,0.46094 1.27344,0.46094 2.00391,0.004 0.875,-0.55078 1.00391,-1.63281 1.01563,-8.57813 l 0.0117,-7.94531 -1.65234,-0.19141 c -0.9375,-0.10937 -1.86719,0.13672 -2.14453,0.57032 -0.27344,0.41797 -0.4375,4.07812 -0.36328,8.13281 0.11328,6.30469 0.27344,7.46875 1.1289,8.00781 z m -1.98046,13.87891 c 1.46875,-1.32813 4.97656,-1.21485 6.39062,0.20703 1.03516,1.03906 1.14063,1.91016 1.12891,9.3125 -0.0156,9.94922 -0.34375,10.71094 -4.60938,10.70312 -2.1875,-0.004 -2.9375,-0.25 -3.39453,-1.11328 -0.33203,-0.62109 -0.58594,-4.85156 -0.57812,-9.63672 0.0117,-7.53515 0.13671,-8.64062 1.0625,-9.47265 z m 2.92968,17.64844 2,0.004 0.0156,-8.00781 0.0117,-8.01172 -1.65235,-0.19141 c -0.9375,-0.10546 -1.86718,0.14063 -2.14453,0.57032 -0.27344,0.41797 -0.43359,4.10547 -0.36328,8.19531 l 0.12891,7.4375 z m -3.3125,14.39062 c 0.39453,-0.53906 1.66407,-1.13281 2.82032,-1.31641 1.7539,-0.28125 2.34375,-0.0937 3.57031,1.13672 1.43359,1.44141 1.46875,1.66016 1.45703,9.26172 -0.0156,9.78516 -0.57422,11.11328 -4.64844,11.125 -3.61719,0.008 -3.94922,-0.89453 -3.93359,-10.66015 0.0117,-5.96485 0.23437,-8.86719 0.73437,-9.54688 z m 1.82032,17.34766 c 0.49218,0.41015 1.46093,0.55468 2.30468,0.34375 l 1.45313,-0.35938 -0.14844,-7.85156 -0.14453,-7.85156 -1.65234,-0.19141 c -0.94141,-0.10937 -1.86329,0.13672 -2.13672,0.56641 -0.26563,0.41797 -0.49219,3.88281 -0.50391,7.69922 -0.0156,5.44921 0.16016,7.08984 0.82813,7.64453 z M 422.07031,82.683594 c 1.6211,-1.617188 4.03125,-1.824219 5.90625,-0.503906 1.22266,0.859374 1.26953,1.226562 1.25391,10.265624 -0.0156,9.039068 -0.0625,9.406248 -1.28906,10.261718 -1.87891,1.3125 -4.28907,1.09766 -5.90235,-0.52344 -1.36328,-1.36718 -1.40234,-1.65625 -1.39062,-9.753902 0.0156,-8.097657 0.0586,-8.386719 1.42187,-9.746094 z m 1.70313,18.039066 c 0.48828,0.40625 1.46484,0.55468 2.28906,0.35156 l 1.4375,-0.35938 0.008,-7.882809 c 0.0156,-8.039062 -0.28125,-9.257812 -2.26953,-9.261719 -1.97266,0 -2.29297,1.222657 -2.30469,8.90625 -0.008,5.976563 0.16407,7.687498 0.83594,8.246098 z m -2.58594,15.05468 c 0.97656,-2.41406 4.39453,-3.21093 6.73437,-1.5664 1.22266,0.85937 1.26954,1.23828 1.25391,9.98047 -0.0156,8.74218 -0.0625,9.12109 -1.28906,9.97656 -1.87891,1.3125 -4.28516,1.09765 -5.90235,-0.52344 -1.35156,-1.35547 -1.40234,-1.67578 -1.35156,-9.01172 0.0274,-4.18359 0.27344,-8.16797 0.55469,-8.85547 z m 2.96875,16.63672 c 0.73047,0.46094 1.27344,0.46094 2.00391,0.004 0.85546,-0.53906 1.02734,-1.71875 1.17187,-8.15234 l 0.17188,-7.52344 -1.42579,-0.65235 c -1.10546,-0.5039 -1.63281,-0.48437 -2.32031,0.082 -1.38281,1.14453 -1.03515,15.33593 0.39844,16.24218 z m -2.51172,14.57422 c 0.84375,-1.03516 1.61719,-1.32422 3.42969,-1.27344 3.98828,0.10938 4.0664,0.31641 4.04687,10.84766 -0.0195,10.54297 -0.008,10.53125 -4.52343,10.52344 -3.67188,-0.0117 -4.07422,-1.0586 -4.0586,-10.65235 0.0117,-7.10937 0.14844,-8.26953 1.10547,-9.44531 z m 3.45703,17.52344 2.00391,0.004 0.17187,-7.83593 c 0.16016,-7.3711 0.10547,-7.875 -0.98828,-8.46094 -0.83203,-0.44531 -1.48437,-0.44531 -2.3164,-0.004 -1.09375,0.58203 -1.15625,1.08594 -1.01563,8.45703 l 0.14453,7.83594 z m -3.125,13.6289 c 1.20703,-1.20312 1.83594,-1.41015 3.48438,-1.14062 3.59375,0.58984 3.625,0.68359 3.60547,11.30859 -0.0195,10.94141 -0.0664,11.04688 -4.7461,10.69922 -3.46094,-0.25781 -3.83203,-1.33984 -3.82422,-11.21875 0.004,-8.02734 0.0274,-8.20312 1.48047,-9.64844 z m 3.07031,18.40625 2.00391,0.004 0.34375,-16.32031 -1.51562,-0.57813 c -2.82813,-1.08203 -3.13672,-0.16406 -2.97657,8.82032 l 0.14453,8.07031 z m -3.08984,13.47657 c 1.79297,-1.40625 4.05078,-1.51563 5.80078,-0.28516 1.22656,0.85938 1.26953,1.23047 1.25391,10.23047 -0.0195,10.67187 -0.0664,10.78516 -4.39063,10.5 -3.85937,-0.25391 -4.1875,-1.12109 -4.17968,-11.15234 0.004,-8.08204 0.0117,-8.11329 1.51562,-9.29297 z m 3.03906,17.98437 2,0.004 0.34375,-16.27344 -1.44922,-0.36719 c -2.85546,-0.72265 -3.20312,0.28907 -3.04296,8.85157 l 0.14453,7.78125 z m -3.89453,15.17188 c 0.99219,-1.89844 3.80469,-2.67188 5.94922,-1.64063 l 1.63672,0.78906 0.14844,9.42969 c 0.13672,9.05078 0.0937,9.47266 -1.08594,10.4336 -1.60547,1.30468 -4.07031,1.26171 -5.75391,-0.10157 -1.28906,-1.04687 -1.35547,-1.46093 -1.49218,-9.30078 -0.10157,-5.83984 0.0703,-8.60547 0.59765,-9.60937 z m 2.83594,17.36718 c 0.73047,0.46094 1.27344,0.46094 2.00391,0 0.875,-0.55078 1.0039,-1.6289 1.01562,-8.57421 0.008,-7.87891 0,-7.94922 -1.31641,-8.13672 -2.91015,-0.41797 -3.0039,-0.14063 -2.84765,8.26172 0.125,6.71484 0.28515,7.90625 1.14453,8.44921 z M 421,274.90625 c 0.96875,-1.64453 1.65234,-1.98047 4.01953,-1.98828 3.6875,-0.008 3.90234,0.60937 3.88281,11.17578 -0.0195,10.46094 -0.0547,10.55859 -4.16015,10.55078 -3.8711,-0.008 -4.13282,-0.62109 -4.28125,-10.11328 -0.0899,-5.70703 0.0859,-8.85547 0.53906,-9.625 z m 3.88672,17.16797 h 2 l 0.17187,-8.10547 c 0.16407,-7.71094 0.11719,-8.125 -0.98437,-8.47656 -0.64063,-0.20313 -1.6836,-0.20703 -2.32031,-0.004 -1.10547,0.34766 -1.15235,0.76172 -1.01563,8.47266 l 0.14453,8.10937 z m -3.5586,13.98828 c 0.85157,-1.04297 1.6836,-1.38281 3.40235,-1.37891 4.01172,0.008 4.13672,0.33985 4.12109,10.88672 -0.0156,9 -0.0625,9.36719 -1.28906,10.22266 -1.72266,1.20312 -4.03906,1.11719 -5.67578,-0.21094 -1.28906,-1.04687 -1.35547,-1.45703 -1.51563,-9.61328 -0.15234,-7.76953 -0.0664,-8.64453 0.95703,-9.90625 z m 2.06641,17.75 c 0.48828,0.40234 1.46094,0.55469 2.28516,0.34766 l 1.4414,-0.35938 0.0117,-7.97656 c 0.0117,-7.39063 -0.0703,-8.02344 -1.1289,-8.58985 -0.8125,-0.4375 -1.47266,-0.4375 -2.28907,-0.004 -1.05468,0.5625 -1.14453,1.19531 -1.15625,8.24219 -0.0117,6.05468 0.16016,7.77734 0.83594,8.33984 z m -1.98047,14.66406 c 0.91016,-1.14844 1.69922,-1.5039 3.34766,-1.5 3.7539,0.008 4.05078,0.8125 4.03125,11.03125 -0.0117,8.58203 -0.0625,8.96485 -1.28516,9.82031 -2.02344,1.41016 -4.74609,1.12891 -6.125,-0.6289 -1.0664,-1.35938 -1.17969,-2.28125 -1.16797,-9.36328 0.008,-7.07813 0.12891,-8 1.19922,-9.35938 z m 1.9336,17.73828 c 0.47265,0.1836 1.5,0.17188 2.28906,-0.0234 l 1.42969,-0.35547 0.0117,-7.98828 0.0156,-7.98438 -1.4375,-0.36328 c -2.76953,-0.69922 -3.14063,0.32422 -3.15234,8.71484 -0.0117,6.29688 0.14062,7.73047 0.84375,8.00391 z m -2.79688,15.07422 c 0.82422,-2.14453 4.58203,-3.03515 7.10156,-1.68359 1.02344,0.55078 1.10157,1.28515 1.08985,9.99219 -0.0195,10.48437 -0.0586,10.58203 -4.16407,10.57421 -3.85546,-0.008 -4.13281,-0.65234 -4.2539,-9.82421 -0.0547,-4.51172 0.043,-8.58594 0.22656,-9.0586 z m 4.17188,16.3125 h 2.0039 l 0.0117,-8.00781 c 0.0156,-7.94141 0.004,-8.00781 -1.3125,-8.19922 -2.91406,-0.41406 -3.00781,-0.14453 -2.85156,8.32422 l 0.14844,7.87891 z m -4.03125,14.71094 c 0.78906,-1.875 2.98046,-2.53516 5.58203,-1.67969 l 2.14453,0.70703 0.14453,9.4336 c 0.14062,9.05468 0.0977,9.48047 -1.08203,10.4375 -1.60938,1.30859 -4.07031,1.26562 -5.75391,-0.10157 -1.29297,-1.04687 -1.35547,-1.4414 -1.46484,-9.29687 -0.0625,-4.51172 0.13281,-8.78516 0.42969,-9.5 z m 2.97656,17.25391 c 0.72656,0.46093 1.26953,0.46093 2,0.004 0.8789,-0.55078 1.0039,-1.63281 1.01562,-8.57812 0.0117,-7.87891 0.004,-7.94532 -1.3125,-8.13672 -2.91015,-0.41406 -3.00781,-0.13672 -2.85156,8.26172 0.12891,6.71484 0.28906,7.90625 1.14844,8.44922 z m -2.45703,14.48828 c 0.92187,-1.16407 1.73437,-1.55469 3.22656,-1.55078 4.17969,0.008 4.21094,0.0859 4.19531,10.53906 -0.0195,10.51172 -0.0976,10.71875 -4.02344,10.80078 -3.91796,0.0781 -4.26171,-0.69531 -4.45703,-10.08594 -0.15625,-7.60937 -0.0859,-8.25 1.0586,-9.70312 z m 3.40234,17.03906 2.00391,0.004 0.0117,-8.00782 c 0.0156,-7.94531 0.004,-8.01172 -1.3125,-8.19922 -2.91407,-0.41796 -3.00782,-0.14453 -2.84766,8.32422 l 0.14453,7.875 z m -4.02344,15.33203 c 0.97657,-2.41406 4.39453,-3.21094 6.73438,-1.56641 1.22265,0.85938 1.26953,1.23829 1.2539,9.97266 -0.0195,10.28516 -0.23437,10.875 -4.02343,10.86719 -1.69922,0 -2.47657,-0.34766 -3.38672,-1.51172 -1.06641,-1.35938 -1.17969,-2.25391 -1.13281,-9.01172 0.0273,-4.125 0.27343,-8.0625 0.55468,-8.75 z m 2.53125,16.40625 c 0.49219,0.41016 1.46485,0.55469 2.30469,0.34375 l 1.45313,-0.35937 -0.14454,-7.85157 c -0.14453,-7.72656 -0.16796,-7.85547 -1.47265,-8.04297 -2.83594,-0.40625 -2.96094,-0.0781 -2.97656,7.82032 -0.008,5.83593 0.16796,7.53125 0.83593,8.08984 z m -6.49218,246.77734 c 0.55468,0.34375 350.24218,1.32032 436.95312,1.22266 l 55.05859,-0.0625 0.10547,-61.65234 c 0.11328,-68.03125 0.2461,-65.32032 -3.48047,-71.52344 -2.20312,-3.66797 -7.73046,-8.125 -12.30078,-9.92188 -2.70312,-1.05859 -4.71484,-1.3164 -12.10937,-1.54296 -16.71485,-0.51563 -463.09375,0.63671 -464.05078,1.19531 -0.60938,0.35547 -0.78125,141.90625 -0.17578,142.28515 z m 147.66796,-22.01171 c 0.73047,-1.75782 3.07032,-3.67969 5.23047,-4.29688 1.07032,-0.30469 6.71875,-0.54687 12.55469,-0.53516 9.86328,0.0195 10.78516,0.10938 13.15625,1.3086 5.04297,2.55469 5.81641,8.36328 1.51953,11.41406 -1.77344,1.26172 -2.34765,1.32031 -14.43359,1.45313 -11.3711,0.1289 -12.77344,0.0391 -14.53906,-0.92579 -3.14063,-1.71484 -4.70704,-5.49218 -3.48829,-8.41796 z m 3.40235,5.57421 1.66406,1.8711 10.74219,0.21875 c 11.80469,0.23828 14.32031,-0.16016 16.21094,-2.55078 1.65625,-2.09766 1.47656,-3.44532 -0.76172,-5.69141 l -1.94141,-1.94531 -24.22656,-0.0391 -1.67578,1.66796 c -2.13672,2.13282 -2.14063,4.07813 -0.0117,6.47266 z m 70.53906,-78.75 c 0.97656,-6.58593 5.6875,-13.29687 11.58203,-16.49218 6.20313,-3.36328 2.19141,-3.21485 91.49219,-3.38672 59.05469,-0.11328 83.5,0.0234 86.92578,0.49219 8.66406,1.17968 15.0625,5.41796 18.14063,12.01171 l 1.51171,3.23829 0.11719,27.96484 c 0.10938,26.94531 0.0703,28.09375 -1.07031,31.50391 -2.35938,7.05468 -9.46875,12.63281 -17.79688,13.96875 -4.99609,0.80468 -165.80859,0.54687 -171,-0.27344 -10.73437,-1.69141 -18.30078,-9.07422 -19.95312,-19.46485 -0.67188,-4.22656 -0.62891,-44.96484 0.0508,-49.5625 z m 2.27344,50.25391 c 1.78906,8.5 8.03515,14.61328 16.875,16.51172 1.83984,0.39453 31.22656,0.58984 88.01953,0.58203 l 85.26172,-0.008 4.38672,-2.16016 c 2.96484,-1.46094 5.01562,-2.9375 6.33984,-4.5664 4.91406,-6.04297 5.08203,-7.36329 4.89844,-37.86719 -0.14063,-23.04297 -0.2461,-25.41016 -1.23438,-28.03125 -1.51953,-4.02344 -6.46484,-8.86328 -10.8789,-10.64844 l -3.42578,-1.38672 -86.08985,-0.14844 c -79.66797,-0.13281 -86.32422,-0.0742 -89.2539,0.82813 -6.82813,2.10547 -12.79297,8.14453 -14.54688,14.72656 -1.07422,4.03125 -1.36328,47.35156 -0.35156,52.16797 z m 9.95703,-50.5 c 1.27344,-3.54297 3.24609,-5.72266 6.60547,-7.29297 l 3.20312,-1.49219 83.51172,0.14063 83.51563,0.14453 2.82812,1.43359 c 1.5586,0.78907 3.61328,2.42579 4.57031,3.63672 l 1.74219,2.19922 -0.0469,26.44531 -0.043,26.44532 -1.53906,2.3164 c -0.96875,1.45703 -2.56641,2.82032 -4.29688,3.67188 l -2.75781,1.35156 -84.3711,-0.14453 -84.375,-0.14453 -2.28515,-1.23828 c -2.92188,-1.58594 -5.07813,-3.91016 -6.22656,-6.71094 -0.78125,-1.90625 -0.89844,-5.46484 -0.84375,-25.45703 0.0469,-17.49219 0.25,-23.75 0.80859,-25.30469 z m 2.56641,51 c 0.63281,1.24609 2.21875,2.97656 3.52734,3.84375 l 2.375,1.57813 83.55469,0.30078 c 91.63281,0.32812 86.36718,0.5039 89.70703,-3.01953 0.8164,-0.85547 1.71875,-2.58985 2.00781,-3.84766 0.28906,-1.25781 0.52344,-12.83984 0.52344,-25.73828 -0.004,-26.44922 0.10156,-25.76172 -4.40235,-28.75391 l -2.37109,-1.57422 -82.89453,-0.29297 c -56.82031,-0.19921 -83.60156,-0.10156 -85.13672,0.3086 -1.23437,0.32812 -3.10937,1.35547 -4.16797,2.28125 -3.82422,3.34765 -3.76172,2.88281 -3.82031,29.03125 -0.0508,22.57812 -0.004,23.71484 1.09766,25.88281 z M 510.71875,862.20312 c 52.14453,0.0703 158.13281,0.0273 235.52734,-0.0937 158.69141,-0.24609 144.10938,0.21875 151.6211,-4.85156 4.1875,-2.82422 8.08984,-7.71484 9.54297,-11.95312 0.5625,-1.64063 0.78515,-14.64063 0.98828,-57.17969 l 0.26562,-55.05859 -246.26953,-0.41797 -246.26953,-0.42188 -0.21875,129.85156 z m 53.9375,-115.42187 c 1.85547,-3.59766 3.44141,-3.96094 17.44922,-3.99609 10.25,-0.0274 12.6875,0.125 14.13672,0.875 4.89843,2.54687 4.38672,10.48046 -0.82032,12.64843 -2.7539,1.14453 -24.64062,1.14063 -27.36718,-0.004 -3.60938,-1.51563 -5.21094,-6.00391 -3.39844,-9.52344 z m 2.78516,6.25391 1.47656,1.76171 12.73828,0.0234 c 12.72656,0.0195 12.73828,0.0195 14.25,-1.3789 1.39062,-1.28516 1.8125,-2.60938 1.5625,-4.88672 -0.0508,-0.47266 -0.87109,-1.58203 -1.82422,-2.46485 l -1.72656,-1.60937 -12.30469,0.15234 -12.30078,0.15625 -1.67188,1.86328 c -2.0625,2.30469 -2.11718,4.09375 -0.19921,6.38282 z m 70.86328,25.39062 c 1.91015,-8.73047 8.5,-15.23047 18.4414,-18.17969 3.04297,-0.90625 9.56641,-0.98437 83.38282,-1.02734 53.98046,-0.0273 81.9414,0.16016 85.78125,0.57812 7.43359,0.8086 12.27734,2.96485 16.33984,7.27344 5.44922,5.78125 5.375,5.3711 5.52734,29.91406 0.125,20.08985 0.0586,21.63672 -1.02734,25.16797 -2.01172,6.54688 -7.47266,11.82032 -14.78516,14.26953 -3.51562,1.17579 -3.9414,1.1836 -88.07812,1.03125 -46.5,-0.082 -85.44531,-0.37109 -86.54688,-0.64062 -10.63281,-2.61719 -17.82031,-9.95313 -19.41797,-19.83203 -0.86328,-5.35156 -0.57812,-34.15235 0.38282,-38.55469 z m 3.40234,43.42188 c 3.38281,7.0625 7.75,10.55468 15.85547,12.67968 3.875,1.01563 8.03516,1.07422 86.44141,1.17578 89.61718,0.11329 85.22656,0.26172 91.39453,-3.07812 3.63672,-1.97266 7.53906,-6.41406 9.16406,-10.42969 1.20312,-2.98047 1.28125,-4.12109 1.49609,-21.73437 0.15235,-12.53125 0.0117,-19.71094 -0.42968,-22.02344 -1.20704,-6.28516 -4.85157,-11.26172 -10.30079,-14.05078 -5.625,-2.88281 -4.16796,-2.83594 -91.19531,-2.96094 -52.89062,-0.0742 -82.30859,0.0859 -84.32422,0.46484 -7.58203,1.41797 -13.66015,5.41407 -17.07812,11.23047 -2.82422,4.79688 -3,6.38672 -2.89844,26.41407 l 0.0937,18.58984 z m 8.54688,-41.90235 c 1.26562,-3.53906 3.30078,-6 6.33984,-7.67969 l 2.86328,-1.58203 25.74219,-0.24218 c 14.15625,-0.13282 51.86719,-0.19922 83.80078,-0.14454 54.71875,0.0937 58.19141,0.16016 60.34375,1.13282 1.25781,0.57031 3.02734,1.73437 3.92969,2.58203 3.125,2.94531 3.21093,3.60156 3.16406,23.98047 -0.0391,17.05468 -0.14063,18.96093 -1.10938,21.03906 -1.35937,2.91406 -2.92578,4.52734 -5.95312,6.14062 l -2.41016,1.28125 -83.80078,-0.14062 -83.80078,-0.14453 -2.57422,-1.52735 c -3.32812,-1.97656 -5.3125,-4.18359 -6.48047,-7.22265 -0.79687,-2.07422 -0.92968,-4.9336 -0.88672,-18.87891 0.0391,-12.28906 0.25,-16.97656 0.83204,-18.59375 z m 2.6875,37.9336 c 0.88281,1.7539 2.16015,3.08593 4.09375,4.27343 l 2.8125,1.73047 82.33203,0.28906 c 56.26562,0.19532 83.04297,0.0977 84.57031,-0.3125 2.92969,-0.78125 5.97656,-3.5 6.89062,-6.14453 0.53125,-1.53125 0.7461,-7.09765 0.78516,-20.13672 0.0625,-20.57031 0.0312,-20.71875 -4.82812,-23.46093 l -2.54297,-1.4336 -82.65625,-0.11718 c -89,-0.12891 -85.05469,-0.25782 -88.76563,2.85546 -3.6914,3.09375 -3.88672,4.24219 -3.93359,23.01172 -0.0391,16.39844 -0.004,16.97266 1.24219,19.44532 z m -181.84766,-535.875 28.45703,-0.10157 0.19141,-110.68359 0.1875,-110.6875 -25.45703,-0.04297 -25.45313,-0.04297 -2.15625,1.335938 c -4.14062,2.5625 -3.79297,-7.136719 -4.01953,112.347662 l -0.20703,107.97656 z m -27.70703,217.28906 c 2.21484,3.64844 1.86328,3.60547 30.30469,3.65234 l 25.77343,0.043 0.0859,-218.79687 -28.45703,-0.19922 -28.46094,-0.19532 -0.17969,106.83204 c -0.17578,104.94531 -0.16015,106.85937 0.9336,108.66015 z M 457.30859,54.152344 c 1.08985,1.128906 2.89063,2.316406 4,2.640625 1.32422,0.382812 18.17578,0.554687 49.02344,0.496093 46.44922,-0.08984 47.02734,-0.105468 48.58984,-1.269531 0.86719,-0.644531 2.11329,-1.882812 2.76172,-2.75 1.125,-1.503906 1.19141,-2.429687 1.37891,-19.414062 C 563.25391,16.25 563.23828,15.988281 561.95312,13.445312 561,11.5625 559.96094,10.523438 558.09766,9.578125 L 555.54687,8.289062 509.31641,8.207031 C 459.94531,8.125 460.91016,8.074219 457.76953,10.859375 455.25,13.09375 455.11719,14.277344 455.22656,33.683594 l 0.0977,18.414062 z m -2.3125,497.839846 c 1.14063,2.19531 3.72266,4.43359 5.98828,5.19531 2.40235,0.80859 90.10157,1.05469 93.53907,0.26172 2.5625,-0.58985 4.60156,-1.96094 6.30859,-4.23828 1.13672,-1.51563 1.18359,-2.28907 1.21094,-19.51172 0.0312,-17.22266 -0.0117,-17.9961 -1.14453,-19.51563 -0.64844,-0.87109 -1.88672,-2.11328 -2.75391,-2.76562 -1.55859,-1.16797 -2.13281,-1.1836 -48.29687,-1.42578 -25.69922,-0.13672 -47.55079,-0.0977 -48.5625,0.082 -2.29688,0.41015 -5.22266,2.8125 -6.23047,5.10937 -1.14063,2.60547 -1.19141,34.63282 -0.0586,36.8086 z m 96.03907,-270 49.1914,0.082 0.35156,-207.070314 -1.58984,-3.257812 c -1.92969,-3.945313 -6.54297,-8.324219 -10.44141,-9.917969 -2.71093,-1.105469 -4.33593,-1.160156 -43.96875,-1.382813 -22.63671,-0.125 -41.49218,-0.101562 -41.90234,0.05469 -0.61328,0.234375 -0.75781,20.265625 -0.79297,110.847658 l -0.043,110.55859 z m -9.38672,221.20312 c 23.9375,0.20313 41.7539,0.12891 43.61718,-0.18359 5.80469,-0.98047 11.37891,-5.53125 13.51563,-11.03906 1.05859,-2.74219 1.09766,-5.88282 1.26953,-105.21875 l 0.17188,-102.39063 -48.6211,-0.23047 c -26.74219,-0.125 -48.9414,-0.10937 -49.33594,0.043 -0.57031,0.21484 -0.7539,22.64063 -0.90234,109.47266 l -0.1875,109.20312 z M 719.33594,38.597656 873.49609,38.859375 873.83984,24.273438 719.76172,24.011719 C 635.01562,23.867188 565.5,23.929688 565.28125,24.148438 c -0.21875,0.214843 -0.33203,3.5 -0.25,7.292968 l 0.14844,6.894532 z m -0.85547,502.519534 154.44531,0.26172 0.0117,-7.4336 0.0117,-7.4375 -154.44531,-0.26562 -154.44532,-0.26172 -0.008,7.4375 -0.008,7.43359 z m 138,-412.76563 c 0.72656,4.55078 2.94922,9.33203 5.01172,10.78516 0.84375,0.59765 2.5,1.42969 3.67968,1.85156 4.4336,1.58984 13.42969,-1.27344 31.90625,-10.14844 17.00782,-8.16796 23.71485,-14.8789 23.60547,-23.6289 -0.082,-6.6875 -4.43359,-12.226565 -14.09765,-17.953128 -9.84766,-5.835937 -27.89063,-14.140624 -33.72266,-15.523437 -9.76562,-2.3125 -15.45703,2.84375 -16.92969,15.34375 -0.625,5.320313 -0.21875,34.457035 0.54688,39.273435 z m 10.74609,-38.210935 c 1.04688,-2.945313 3.48438,-4.660156 6.63281,-4.65625 3.29688,0 18.48438,7.9375 26.13282,13.652344 4.57812,3.421871 5.24218,4.085941 6.61328,6.601561 2.01562,3.70703 -2.70313,8.54688 -15.38672,15.78125 -7.90234,4.50781 -14.03125,7.39844 -16.52734,7.80078 -3.17188,0.50781 -6.04297,-1.02734 -7.35547,-3.92968 -1.01172,-2.24219 -1.10157,-3.77735 -1.05078,-17.61329 0.0469,-12.08984 0.23828,-15.660152 0.9414,-17.636715 z m 2.125,34.242185 c 1.7461,3.38672 4.33594,3.66016 9.70703,1.02735 l 3.73047,-1.83594 0.0274,-16.17188 0.0273,-16.167965 -3.41016,-1.730469 c -5.5,-2.789062 -8.66015,-2.261718 -10.25,1.699219 -0.32031,0.800781 -0.59765,7.972656 -0.6289,16.460935 -0.0508,12.35157 0.0898,15.34375 0.79687,16.71875 z m 16.06641,-2.27343 c 0.64844,0 8.0039,-4.21485 11.25781,-6.45313 l 3.29297,-2.26953 0.008,-5.83984 0.0117,-5.83985 -3.28516,-2.289061 C 893.36719,97.09375 886.1875,92.9375 885.50391,92.9375 c -0.20704,0 -0.38672,6.5625 -0.39844,14.58594 -0.0117,8.02344 0.125,14.58594 0.3125,14.58594 z m 16.80078,-10.83985 c 0.69922,0 2.90625,-2.8164 2.90625,-3.71094 0.004,-0.89843 -2.19531,-3.72265 -2.89453,-3.72656 -0.29297,0 -0.53125,1.67578 -0.53516,3.71875 -0.004,2.04688 0.23047,3.71875 0.52344,3.71875 z M 856.51953,241.125 c 0.44531,2.08984 1.34766,4.85937 2.00391,6.14844 2.32031,4.57031 7.58593,6.5625 13.90234,5.26172 6.04297,-1.24219 28.47266,-11.12891 35.625,-15.70313 11.27344,-7.20703 15.08203,-15.66797 10.84375,-24.08594 -3.57812,-7.09375 -13.58984,-13.60547 -37.07422,-24.10156 -11.71875,-5.23828 -17.27344,-5.24219 -21.875,-0.0156 -1.94531,2.20703 -3.33203,5.87109 -4.15234,10.96093 -0.82031,5.11328 -0.26563,36.86719 0.72656,41.53516 z m 10.375,-38.57422 c 1.4375,-4 4.17969,-5.69141 8.26172,-5.08594 2.39062,0.35547 13.69141,6.16797 20.07422,10.32032 13.90234,9.04687 14.89062,12.62109 5.40234,19.55078 -3.66797,2.67968 -9.21094,5.88672 -17.34765,10.03906 -9.63672,4.92187 -13.40235,4.85156 -15.99219,-0.30078 -1.23438,-2.45703 -1.27735,-3.10938 -1.23047,-17.44531 0.0391,-11.0586 0.25391,-15.45704 0.83203,-17.07813 z m 3.07422,34.75 c 1.91016,2.03906 4.83594,1.96484 9.21094,-0.23437 l 3.41797,-1.71875 0.0312,-16.32422 0.0273,-16.32422 -3.125,-1.39063 c -4.45703,-1.98047 -5.8125,-2.22265 -7.82031,-1.39453 -3.15235,1.30078 -3.35157,2.53125 -3.23438,20.08203 l 0.10938,15.82813 z m 18.21094,-4.82812 c 6.48047,-3.61719 9.66797,-5.625 10.64843,-6.70313 0.82813,-0.91406 0.96875,-2.02734 0.83985,-6.72656 l -0.15625,-5.62891 -2.85547,-2.16797 c -2.25781,-1.71875 -8.64063,-5.48828 -11.28906,-6.67187 -0.23438,-0.10156 -0.4375,6.54297 -0.45313,14.77344 l -0.0234,14.96093 z m 13.84765,-9.08594 c 0.79688,0 2.91016,-2.875 2.89063,-3.9336 -0.0234,-1.11718 -1.91797,-3.5 -2.78516,-3.5039 -0.38672,0 -0.625,1.41797 -0.6289,3.71875 -0.004,2.04297 0.23046,3.71875 0.52343,3.71875 z m -45.72656,129.19922 c 0.97266,4.74218 1.57813,6.19922 3.55078,8.55078 3.08203,3.67969 8.35547,4.46094 15.42578,2.29297 5.69532,-1.75 24.13282,-10.19922 30.50391,-13.98438 14.94922,-8.875 18.40625,-18.30469 10.52344,-28.69531 -3.96094,-5.21875 -19.07422,-14.01563 -36.39063,-21.17969 -6.38281,-2.64453 -11.96875,-3.66015 -15.40625,-2.80078 -4.3789,1.08984 -7.89453,6.94141 -8.91797,14.85547 -0.75781,5.85937 -0.22656,36.36719 0.71094,40.96094 z m 10.43359,-38.59375 c 1.25,-3.50782 3.17579,-4.85938 6.91797,-4.85157 2.76172,0.004 4.04297,0.48438 10.97266,4.09766 11.60547,6.05078 20.13672,12.21484 21.53906,15.5625 0.37891,0.91016 0.5625,2.33203 0.40235,3.15625 -0.67188,3.48047 -9.96485,10.11328 -24.47266,17.45703 -8.89063,4.50391 -12.42188,4.31641 -14.98828,-0.79687 -1.23438,-2.45313 -1.28125,-3.10938 -1.23438,-17.44532 0.0391,-11.33203 0.2461,-15.4414 0.86719,-17.17968 z m 3.04297,34.85156 c 1.86719,1.99219 4.52344,1.93359 9.0625,-0.20313 l 3.58594,-1.6914 -0.12109,-16.44922 -0.125,-16.44922 -3.96094,-1.65625 c -3.50391,-1.46484 -4.21094,-1.58203 -6.08984,-1.02344 -3.69922,1.10157 -3.95313,2.44141 -3.83594,20.45313 l 0.10156,15.54297 z m 15.63672,-3.65625 c 1.42578,-0.0117 12.75781,-7.26953 13.44922,-8.60547 0.40234,-0.77344 0.71875,-3.53125 0.72656,-6.33594 0.0117,-3.97265 -0.18359,-5.16406 -0.98437,-5.96484 -1.85547,-1.86719 -12.33985,-8.25391 -13.54688,-8.25781 -0.16797,0 -0.32031,6.5625 -0.33203,14.58593 -0.0195,11.29297 0.13672,14.58594 0.6875,14.57813 z m 16.53906,-10.37891 c 0.35547,-0.11718 1.19141,-1.14843 1.85547,-2.29687 l 1.21485,-2.08203 -1.17188,-1.57422 c -2.0664,-2.77735 -2.53125,-2.40235 -2.53906,2.07031 -0.004,2.78906 0.19922,4.03125 0.64062,3.88281 z m -46.62109,121.59766 c 0.80859,12.11719 2.52734,16.53125 7.41406,19.07422 2.16797,1.1289 3.14453,1.29297 6.28516,1.04687 4.40234,-0.34765 7.48437,-1.36328 17.45703,-5.75781 20.25,-8.91797 28.95703,-14.77734 32.67188,-21.97656 1.59765,-3.09766 1.40625,-8.27735 -0.44922,-12.07813 -3.35938,-6.90234 -10.46485,-11.85156 -30.41407,-21.18359 -10.33593,-4.83594 -14.54296,-6.32422 -18.88671,-6.68359 -3.375,-0.28125 -4.40235,-0.14454 -6.36329,0.85156 -4.38671,2.23047 -6.60937,6.28906 -7.60937,13.90625 -0.67969,5.15625 -0.73828,23.36328 -0.10547,32.80078 z m 11.13281,-30.49219 c 1.53125,-4.20703 5.12891,-5.99609 9.34375,-4.64453 5.64844,1.8125 22.35938,11.59375 27.01953,15.81641 6.0625,5.49609 4.73438,9.07031 -5.90625,15.90234 -7,4.49609 -19.875,11.07422 -22.48828,11.48828 -3.51172,0.55469 -6.30078,-0.85547 -7.66797,-3.88281 -1.01171,-2.24219 -1.10546,-3.77734 -1.05468,-17.61328 0.0391,-10.34766 0.27734,-15.76563 0.7539,-17.06641 z m 3.33985,35.14063 c 2.16797,1.87109 4.59375,1.77343 8.88672,-0.36328 l 3.52734,-1.75782 0.0273,-16.16406 0.0274,-16.16797 -3.70313,-1.8125 c -5.44922,-2.66797 -8.19922,-2.32422 -9.77734,1.22266 -0.63672,1.4414 -0.78125,5.08984 -0.69922,17.73828 l 0.10937,15.92187 z m 15.13672,-3.74219 c 0.91015,0.004 12.5,-6.95313 13.45312,-8.07422 0.80078,-0.94141 1.00391,-2.26562 1.01172,-6.52734 0.008,-4.8086 -0.12109,-5.46875 -1.27734,-6.55078 -1.42188,-1.32813 -12.34375,-8.01954 -13.09766,-8.01954 -0.25781,0 -0.48438,6.5625 -0.49609,14.58594 -0.0156,8.02344 0.16796,14.58594 0.40625,14.58594 z m 16.9414,-10.83984 c 0.42188,0.004 1.25391,-0.89063 1.84375,-1.98438 1.05469,-1.95312 1.05469,-2.00781 -0.082,-3.53906 -2.01562,-2.70703 -2.51562,-2.36328 -2.52344,1.75781 -0.004,2.76953 0.19922,3.76563 0.76172,3.76563 z M 916.12109,40.933594 956.17578,41.003906 955.89453,21.839844 916.71094,21.625 c -21.54688,-0.117188 -39.50391,-0.08984 -39.89844,0.05859 -0.53125,0.199218 -0.71875,2.6875 -0.73047,9.726562 l -0.0156,9.457032 z M 878.64062,544.42578 c 1.73047,-0.0547 19.69141,-0.0898 39.91016,-0.0742 l 36.76953,0.0274 -0.14062,-9.57813 -0.14063,-9.58203 -26.3125,-0.0703 c -14.47265,-0.0352 -32.43359,0.0195 -39.91406,0.1289 l -13.59766,0.19922 0.14063,9.52735 0.13672,9.52734 z m 6.47266,-356.71875 c 1.04688,0.66406 13.69531,6.5 14.09375,6.5 0.45313,0 0.53906,-61.01172 0.0859,-61.46484 -0.19141,-0.19532 -3.41406,1.03906 -7.15235,2.74609 l -6.80078,3.09766 -0.33593,23.36718 c -0.1836,12.84766 -0.39844,23.80079 -0.47266,24.33204 -0.0742,0.53125 0.1875,1.17187 0.58203,1.42187 z m 6.17578,114.6875 c 3.73828,1.84375 7.08203,3.35547 7.42969,3.35547 0.46094,0.004 0.60547,-8.5 0.53125,-30.74219 -0.0547,-16.91015 -0.28906,-30.69531 -0.51953,-30.6289 -1.40625,0.39453 -13.63281,6.08203 -13.8711,6.44921 -0.15625,0.2461 -0.30468,11.19532 -0.32421,24.32813 l -0.043,23.88281 z m -0.1875,112.06641 c 3.89844,1.875 7.38672,3.40625 7.75391,3.40625 0.46875,0 0.58203,-1.21485 0.38672,-4.14453 -0.15235,-2.28125 -0.27344,-16.29688 -0.26953,-31.14844 l 0.0117,-26.9961 -7.01562,3.28907 -7.01172,3.29297 -0.33594,23.98046 c -0.18359,13.1875 -0.39843,24.19141 -0.47265,24.44922 -0.0742,0.25782 3.05468,2 6.95312,3.8711 z m 0.44531,108.64453 c 7.9961,0.0156 7.42579,0.36719 7.16797,-4.44922 -0.0547,-1.03906 0.3086,-2.50781 0.80469,-3.26172 0.71484,-1.08984 0.77344,-1.69922 0.27734,-2.97266 -0.40234,-1.03515 -0.65234,-9.10937 -0.70312,-22.89453 -0.0469,-11.71093 -0.22266,-21.43359 -0.39453,-21.60547 -0.17188,-0.17187 -3.44141,1.14454 -7.26563,2.92188 l -6.95312,3.23828 -0.043,24.50391 -0.0391,24.50781 z M 452.42969,880.15625 c 1.39843,-3 3.13281,-4.74609 6.01172,-6.04688 2.23046,-1.00781 4.70312,-1.05859 48.4375,-0.99609 51.82421,0.0742 50.22265,-0.0469 53.91406,4.05078 2.0664,2.29688 2.55078,3.83203 2.79687,8.90235 0.0899,1.87109 0.38672,2.84375 0.85157,2.80468 0.39453,-0.0312 69.79687,0.0234 154.23046,0.1211 l 153.51563,0.17578 0.33984,-1.66797 0.33594,-1.67188 40.78125,-0.12109 c 22.42578,-0.0703 41.23438,-0.0273 41.78906,0.0937 0.9375,0.19922 1,1.10547 0.83985,11.73047 l -0.17578,11.51562 -27.88282,0.0977 -27.88672,0.10156 -0.0508,28.88282 c -0.043,24.30468 -0.17578,28.88281 -0.84765,28.8789 -0.4375,0 -0.91407,-0.32422 -1.0586,-0.71484 -0.14843,-0.39453 -0.14453,-13.39453 0.004,-28.88672 l 0.27344,-28.17188 -7.44922,-0.0156 -7.44922,-0.0117 -0.19922,28.74609 c -0.17187,25.10157 -0.30469,28.74219 -1.05469,28.74219 -0.75,-0.004 -0.87109,-3.64453 -0.95703,-28.74609 l -0.10156,-28.7461 -4.45313,-0.008 c -2.45312,-0.004 -4.71484,-0.26562 -5.03125,-0.58203 -0.3789,-0.37891 -52.23437,-0.61328 -154.41406,-0.69141 l -153.84375,-0.11718 -0.15234,4.28906 c -0.082,2.35937 -0.28516,4.86328 -0.44531,5.56641 -0.42969,1.85546 -3.5625,5.1914 -6.07422,6.46875 -2.10547,1.07031 -3.78125,1.10546 -48.89844,1.02734 -34.16797,-0.0586 -47.32031,-0.26172 -48.96484,-0.75781 -2.9375,-0.88282 -6.51172,-4.40625 -7.27344,-7.16797 -0.35938,-1.30469 -0.58594,-8.73438 -0.5625,-18.48438 0.0312,-14.67187 0.14453,-16.53125 1.10156,-18.58984 z m 2.42187,38.05078 c 0.70313,1.04297 2.00781,2.43359 2.89453,3.09375 1.60157,1.19141 1.9336,1.19922 49.05469,1.43359 46.42188,0.22657 47.48438,0.20704 49.67578,-0.90625 1.23047,-0.625 2.83985,-1.97656 3.57813,-3.0039 1.3164,-1.84375 1.33984,-2.10938 1.53125,-18.75391 0.19531,-16.76172 0.1875,-16.90234 -1.14063,-19.42187 -0.92187,-1.75 -2.10937,-2.94922 -3.82422,-3.85938 l -2.48828,-1.32031 -46.58594,-0.0781 c -52.21093,-0.0898 -49.04296,-0.33984 -52.26953,4.09766 l -1.65234,2.27344 -0.0312,17.27734 c -0.0312,16.97266 -0.0117,17.3086 1.25391,19.16797 z m 263.00781,-12.42969 154.15625,0.26563 0.0156,-7.4375 0.0117,-7.4375 -5.71875,0.0312 c -3.14844,0.0156 -72.58985,-0.0391 -154.32031,-0.1211 l -148.60157,-0.14843 0.29688,14.58593 z m 173.60547,1.41797 c 9.1211,0.004 27.08203,-0.0312 39.91016,-0.0742 l 23.32422,-0.082 -0.14063,-9.57812 -0.14062,-9.58203 -35.75,-0.23438 c -19.66406,-0.12891 -37.625,-0.0703 -39.91016,0.125 l -4.16406,0.35938 0.28125,19.0625 z M 624.63281,83.984375 c 2.10547,-7.777344 8.04297,-15.648437 14.57813,-19.335937 5.70703,-3.21875 9.91015,-4.304688 16.30859,-4.203126 3.14453,0.04688 9.71094,0.08203 14.58594,0.07813 135.65625,-0.125 147.21875,-0.04688 150.69531,1.035156 5.89063,1.828125 10.10547,4.335937 14.03125,8.347656 4.27734,4.371094 6.84375,8.875 8.51172,14.929688 l 1.17187,4.265624 L 844.1875,278.75 c -0.28516,164.71484 -0.44141,190.17578 -1.17578,193.64844 -1.96875,9.28906 -8.2461,17.77343 -16.1836,21.875 -9.22656,4.76562 -0.99609,4.39453 -93.97656,4.24218 l -82.65625,-0.13281 -4,-1.27344 c -8.94531,-2.85156 -15.86719,-8.8164 -19.78906,-17.05468 -1.20313,-2.52735 -2.44531,-5.98438 -2.75781,-7.67578 -0.37891,-2.03907 -0.44922,-67.84375 -0.21094,-194.20313 0.3125,-164.82812 0.47656,-191.542968 1.19531,-194.195311 z m 1.95703,390.621095 c 3.86328,10.9414 9.90625,16.92187 20.75,20.53906 2.60938,0.86719 10.09766,0.96484 85.80469,1.09375 79.79297,0.13672 83.0625,0.10156 86.08984,-0.93359 9.19532,-3.13672 14.96094,-8.02735 19.12891,-16.21485 3.45703,-6.79297 3.21484,7.39844 3.41016,-201.28515 l 0.17968,-190.949221 -1.27343,-3.761719 c -1.66407,-4.917969 -6.21094,-11.351562 -10.1211,-14.3125 -1.71484,-1.300781 -5.12109,-3.179688 -7.5664,-4.175781 l -4.45313,-1.8125 -82.65625,-0.320313 c -61.53515,-0.238281 -83.46094,-0.148437 -85.80078,0.34375 -7.60156,1.605469 -16.32812,7.503906 -19.78125,13.371094 -1.5625,2.652344 -3.53125,7.9375 -4.26562,11.445312 -0.26172,1.257813 -0.58594,87.874998 -0.71875,192.484378 L 625.07422,470.3125 Z M 638.48047,86.109375 c 2.08984,-5.714844 6.98437,-10.496094 12.16406,-11.878906 2.78906,-0.746094 163.21875,-0.507813 165.78125,0.246093 6.94531,2.046876 11.91797,7.90625 13.21094,15.5625 0.4414,2.605469 0.48047,57.785158 0.13672,191.570308 -0.45703,176.58204 -0.54688,188.07813 -1.48047,190.76563 -1.63672,4.6875 -4.80078,8.28516 -9.28906,10.56641 l -3.92579,1.99609 -82.14453,-0.14063 -82.14062,-0.14062 -2.85938,-1.41406 c -3.67187,-1.82422 -7.96484,-6.125 -9.57812,-9.60547 l -1.26953,-2.73047 0.20703,-191.05469 c 0.1914,-179.07031 0.26562,-191.222654 1.1875,-193.742185 z M 684.875,205.65625 c 25.24609,-0.16016 67.72266,-0.42578 94.39453,-0.58594 l 48.48828,-0.29297 -0.0547,-58.11328 -0.0547,-58.117185 -1.34766,-2.574219 c -2.26562,-4.332031 -4.53906,-6.738281 -7.95312,-8.421875 l -3.26172,-1.609375 -80.34375,-0.292968 c -90.78907,-0.335938 -83.9375,-0.65625 -89.33203,4.179687 -3.01563,2.699219 -4.77735,5.550781 -5.6211,9.105469 -0.28125,1.183594 -0.57812,27.999996 -0.66406,59.585936 l -0.15625,57.43359 z m 4.27344,8.58984 c 123.36718,-0.71875 137.1875,-0.82031 137.89062,-1.03906 0.51953,-0.16016 0.69531,-1.14453 0.57813,-3.24219 l -0.16797,-3.00781 -5.72266,-0.0117 c -56.03125,-0.0937 -181.34375,0.94531 -182.33203,1.51172 -0.23828,0.13672 -0.43359,1.55859 -0.4375,3.16406 l -0.004,2.91797 z m 43.54297,128.11328 c 51.67578,-0.13671 94.14843,-0.42578 94.38671,-0.64453 0.23829,-0.21875 0.41407,-28.66797 0.39454,-63.22656 l -0.0391,-62.82812 -14.58593,0.0547 c -55.55469,0.21485 -172.59375,1.05078 -173.1836,1.23828 -0.5664,0.17969 -0.73828,13.27344 -0.82031,62.94141 l -0.10938,62.71484 z m -56.21875,8.66797 c 20.60937,0.13672 63.02734,0.10938 94.26953,-0.0508 l 56.80078,-0.29687 -0.32813,-6.4375 -33.17968,0.0898 c -88.41797,0.24609 -154.49219,0.60938 -154.90625,0.85156 -0.25,0.14844 -0.38282,1.46875 -0.28907,2.9336 l 0.16797,2.66797 z m -36.17969,121.3125 c 1.85547,3.91797 5.0625,7.1875 8.78906,8.95313 l 2.85547,1.35156 81.07031,0.14453 81.06641,0.14453 3.01953,-1.33593 c 3.47266,-1.53125 6.89453,-5.02735 8.67969,-8.8711 1.22265,-2.63672 1.22656,-2.7539 1.48047,-61.22265 l 0.25,-58.58204 -93.91797,0.24219 c -51.65235,0.13672 -94.13672,0.38281 -94.40625,0.54688 -0.26953,0.16797 -0.46485,26.21875 -0.4336,57.89062 l 0.0586,57.58985 z m 0,0"
         fill-opacity="1"
         fill-rule="nonzero"
         id="path3" /></g></g></svg>
